<?xml version="1.0" standalone="no"?>
<!DOCTYPE svg PUBLIC "-//W3C//DTD SVG 20010904//EN"
 "http://www.w3.org/TR/2001/REC-SVG-20010904/DTD/svg10.dtd">
<svg version="1.0" xmlns="http://www.w3.org/2000/svg"
 width="1280.000000pt" height="1280.000000pt" viewBox="0 0 1280.000000 1280.000000"
 preserveAspectRatio="xMidYMid meet">

<g transform="translate(0.000000,1280.000000) scale(0.100000,-0.100000)"
fill="#fff" stroke="none">
<path d="M7426 9086 c-48 -143 -117 -344 -153 -446 -77 -221 -106 -303 -352
-1013 -105 -302 -191 -553 -191 -557 0 -4 17 -6 38 -3 49 6 776 61 779 59 1
-1 -38 -64 -86 -141 -89 -143 -546 -895 -627 -1032 l-45 -75 108 7 c59 3 148
10 198 15 49 5 91 8 93 6 1 -2 -64 -93 -146 -202 -82 -110 -259 -347 -393
-529 -134 -181 -341 -463 -461 -625 -120 -162 -218 -298 -218 -302 0 -4 15 1
33 12 17 11 43 20 57 20 30 0 96 32 93 45 -1 7 79 9 218 6 239 -4 361 8 559
55 288 68 568 203 815 393 163 124 390 355 366 371 -10 6 -10 9 -1 15 13 8
189 274 212 320 8 17 19 39 25 50 21 39 82 190 89 220 4 17 13 39 20 50 7 11
18 46 25 78 8 31 16 57 19 57 3 0 7 12 8 28 2 15 5 38 8 52 4 27 7 53 28 230
19 161 19 162 -12 196 -23 26 -27 38 -24 73 4 38 6 40 18 24 12 -16 15 -16 24
-3 6 8 9 24 8 35 -1 11 1 26 5 33 5 7 2 14 -7 18 -9 3 -16 13 -16 22 0 13 -3
12 -15 -4 -8 -10 -15 -14 -15 -7 0 7 -7 10 -17 7 -15 -5 -15 -4 -3 4 8 6 18 8
24 5 5 -3 6 -1 2 5 -4 7 -14 12 -22 12 -8 0 -14 4 -14 9 0 14 26 32 35 23 5
-4 5 -1 0 6 -5 9 -11 10 -17 4 -7 -7 -17 -2 -32 14 l-21 24 -19 -27 c-11 -14
-14 -23 -7 -19 8 5 20 0 32 -13 15 -16 16 -21 6 -21 -8 0 -17 -9 -20 -20 -3
-11 -15 -24 -28 -28 -16 -6 -19 -11 -10 -16 9 -6 8 -12 -6 -23 -10 -8 -12 -11
-4 -7 11 5 13 3 8 -9 -3 -10 -2 -17 4 -17 5 0 7 -11 3 -25 -4 -15 -2 -25 5
-25 6 0 11 6 11 13 1 8 5 7 13 -4 7 -8 20 -18 30 -22 22 -8 17 -33 -7 -31 -14
2 -20 -8 -17 -28 0 -5 -6 -8 -15 -8 -8 0 -13 -4 -9 -9 3 -5 1 -12 -5 -16 -6
-4 -7 -12 -3 -18 4 -8 1 -7 -9 1 -14 11 -18 9 -26 -15 -10 -26 -10 -26 -11 17
-2 68 -20 88 -22 23 -1 -29 -2 -56 -4 -60 -1 -5 -5 -26 -9 -48 -11 -61 -37
-168 -46 -190 -5 -11 -12 -38 -15 -60 -4 -22 -10 -44 -14 -50 -9 -13 -28 -71
-36 -112 -3 -17 -12 -37 -20 -43 -8 -6 -17 -26 -21 -43 -3 -17 -17 -48 -30
-69 -13 -21 -24 -42 -24 -47 0 -6 -13 -30 -30 -54 -16 -25 -30 -48 -30 -51 0
-21 -203 -276 -296 -371 -123 -126 -287 -245 -474 -343 -112 -60 -344 -145
-425 -157 -22 -3 3 8 55 23 387 117 702 327 946 631 218 270 334 528 405 896
21 107 18 494 -4 610 -41 209 -78 325 -162 502 -94 198 -199 346 -375 527 -91
95 -105 113 -68 88 57 -39 62 -39 53 -4 -10 34 -8 94 5 152 9 44 18 117 19
152 3 73 282 -198 445 -430 89 -127 230 -392 271 -507 9 -27 21 -59 25 -70 24
-59 57 -178 89 -320 30 -129 44 -324 39 -525 -2 -102 -1 -171 3 -155 14 62 9
449 -6 556 -58 399 -184 711 -414 1029 -87 120 -106 144 -216 259 -159 165
-332 304 -522 417 -67 40 -99 64 -92 71 5 5 21 52 34 103 14 51 48 160 75 242
28 81 50 155 50 164 0 19 16 15 119 -32 86 -40 90 -40 67 -15 -10 11 -15 24
-12 29 3 5 6 37 7 71 2 75 -4 83 -111 139 l-75 39 -89 -261z m18 -1198 c237
-182 454 -484 554 -769 148 -421 129 -882 -53 -1275 -94 -204 -252 -411 -435
-571 -111 -98 -114 -100 -139 -65 l-20 28 94 78 c294 242 499 595 559 961 83
503 -75 1021 -421 1385 -74 78 -165 159 -232 207 -7 5 29 53 40 53 6 0 30 -14
53 -32z m1016 -1279 c0 -6 -4 -7 -10 -4 -5 3 -10 11 -10 16 0 6 5 7 10 4 6 -3
10 -11 10 -16z m-398 -1516 c-23 -32 -169 -175 -192 -188 -8 -5 32 41 90 102
102 108 142 142 102 86z m-1249 -400 c-7 -2 -19 -2 -25 0 -7 3 -2 5 12 5 14 0
19 -2 13 -5z m-66 -9 c-3 -3 -12 -4 -19 -1 -8 3 -5 6 6 6 11 1 17 -2 13 -5z"/>
<path d="M6125 8420 c-535 -95 -1001 -403 -1297 -855 -158 -240 -260 -526
-293 -820 -18 -162 -19 -246 -1 -407 27 -237 96 -462 205 -668 125 -238 354
-498 577 -655 90 -64 117 -88 74 -65 -56 30 -227 169 -313 255 -247 245 -415
526 -500 835 -14 52 -33 126 -41 164 -21 90 -28 99 -69 82 -29 -11 -31 -16
-29 -49 2 -22 -1 -37 -7 -37 -6 0 -11 -8 -11 -17 0 -15 2 -16 10 -3 7 11 10 7
10 -18 0 -18 5 -43 11 -55 9 -16 9 -22 1 -25 -9 -3 -9 -9 -1 -23 12 -23 -5
-54 -24 -42 -6 4 -8 0 -5 -8 4 -10 -5 -20 -25 -29 -23 -10 -32 -10 -35 -2 -6
19 -28 14 -28 -7 0 -11 4 -17 8 -15 4 3 8 0 8 -5 0 -6 -7 -11 -15 -11 -17 0
-20 -16 -5 -25 6 -4 8 -16 4 -28 -4 -15 -3 -19 4 -12 5 6 12 19 15 30 3 11 4
3 3 -17 -3 -26 0 -38 9 -38 7 0 16 -7 19 -16 9 -24 7 -28 -8 -15 -12 10 -14 8
-11 -11 1 -13 8 -36 15 -53 7 -16 13 -33 12 -36 -1 -4 32 -72 73 -152 75 -148
121 -222 209 -337 93 -121 138 -167 346 -355 50 -45 106 -85 120 -85 4 0 10
-3 12 -7 4 -11 85 -65 128 -86 19 -10 49 -27 65 -38 17 -10 38 -22 48 -25 9
-4 17 -10 17 -14 0 -4 24 -20 54 -34 30 -15 60 -33 67 -42 17 -20 -88 19 -154
58 -26 15 -50 28 -53 28 -3 0 -43 25 -89 55 -139 91 -370 290 -453 389 -24 28
-51 60 -60 71 -80 93 -192 254 -192 274 0 6 -4 11 -9 11 -8 0 -151 279 -151
295 0 4 -6 21 -14 38 -37 86 -88 256 -111 377 -10 47 -19 87 -22 90 -10 9 8
-99 33 -202 140 -573 493 -1054 1010 -1376 185 -115 600 -292 623 -266 5 5 23
65 40 134 18 69 45 175 61 235 109 421 131 508 126 512 -2 3 -98 -2 -212 -11
-113 -9 -209 -15 -211 -12 -3 2 38 71 90 153 51 81 165 263 252 403 87 140
202 325 256 410 53 85 96 156 95 158 -3 2 -834 -45 -888 -52 -43 -5 -47 4 -19
42 17 26 252 416 910 1517 162 270 302 504 312 520 22 38 44 34 -241 40 -192
4 -241 1 -335 -15z m-666 -518 l20 -28 -66 -50 c-84 -63 -232 -219 -304 -320
-244 -342 -354 -751 -309 -1149 49 -425 271 -813 613 -1072 l68 -51 -23 -27
-23 -27 -64 47 c-35 26 -104 86 -154 133 -423 409 -593 1026 -441 1608 77 299
223 554 443 775 103 103 201 189 217 189 1 0 12 -13 23 -28z m71 -3027 c0 -3
-18 4 -40 15 -22 11 -40 23 -40 25 0 3 18 -4 40 -15 22 -11 40 -23 40 -25z"/>
<path d="M3960 7920 c-6 -11 -8 -20 -6 -20 3 0 10 9 16 20 6 11 8 20 6 20 -3
0 -10 -9 -16 -20z"/>
<path d="M3902 7810 c-18 -29 -15 -38 4 -12 9 13 14 25 12 27 -2 2 -9 -5 -16
-15z"/>
<path d="M8911 7815 c0 -5 11 -30 24 -55 13 -25 24 -40 24 -35 0 6 -11 30 -24
55 -13 25 -24 41 -24 35z"/>
<path d="M3876 7753 c-6 -14 -5 -15 5 -6 7 7 10 15 7 18 -3 3 -9 -2 -12 -12z"/>
<path d="M3816 7625 c-25 -58 -46 -111 -46 -117 0 -6 -2 -9 -5 -6 -3 3 -1 27
6 53 10 40 9 54 -7 101 -15 44 -22 54 -38 52 -21 -3 -26 -10 -55 -78 -83 -195
-156 -476 -185 -715 -45 -373 -19 -769 73 -1119 135 -509 400 -970 771 -1336
292 -290 597 -493 971 -646 158 -65 434 -153 444 -142 5 5 36 130 33 133 -2 1
-41 12 -88 24 -653 167 -1266 620 -1639 1214 -182 288 -314 623 -381 962 -105
532 -43 1142 166 1638 18 44 32 82 30 84 -2 2 -24 -44 -50 -102z"/>
<path d="M8972 7678 c6 -18 14 -37 18 -43 14 -18 98 -277 124 -380 127 -502
111 -1084 -43 -1560 -101 -316 -274 -638 -478 -895 -97 -123 -321 -349 -441
-445 -388 -312 -821 -502 -1322 -580 -63 -10 -200 -19 -345 -22 l-240 -6 -32
-43 -33 -43 33 -19 c45 -27 86 -33 244 -33 520 -1 1056 157 1515 445 713 447
1211 1201 1347 2037 68 418 47 808 -69 1269 -6 25 -15 52 -19 60 -5 9 -12 31
-16 50 -4 19 -10 40 -14 45 -4 6 -20 43 -35 83 -29 75 -55 102 -75 78 -6 -7
-8 -16 -4 -19 3 -4 1 -7 -5 -7 -6 0 -16 -18 -22 -40 -6 -22 -14 -40 -18 -40
-4 0 -22 32 -40 70 -35 74 -48 91 -30 38z"/>
<path d="M8335 7460 c-3 -5 -1 -10 4 -10 6 0 11 5 11 10 0 6 -2 10 -4 10 -3 0
-8 -4 -11 -10z"/>
<path d="M8360 7446 c0 -2 7 -7 16 -10 8 -3 12 -2 9 4 -6 10 -25 14 -25 6z"/>
<path d="M8395 7300 c-16 -7 -17 -9 -3 -9 9 -1 20 4 23 9 7 11 7 11 -20 0z"/>
<path d="M8357 7262 c-14 -15 -14 -19 -3 -19 8 0 14 5 13 11 -1 6 4 10 11 8 8
-1 11 2 7 8 -8 13 -9 13 -28 -8z"/>
<path d="M8427 7239 c3 -11 11 -18 19 -15 7 3 15 0 18 -7 2 -7 5 -6 5 4 1 9
-10 21 -23 27 -21 9 -23 8 -19 -9z"/>
<path d="M8420 7192 c10 -20 16 -40 13 -44 -2 -5 0 -8 6 -8 5 0 11 -17 13 -37
2 -31 7 -37 22 -35 12 2 16 -1 10 -10 -4 -7 2 -4 13 7 22 22 20 43 -8 89 -10
16 -15 34 -12 39 4 6 -5 7 -21 3 -15 -4 -25 -3 -22 2 2 4 -3 13 -13 19 -18 11
-18 10 -1 -25z"/>
<path d="M4261 7094 c0 -11 3 -14 6 -6 3 7 2 16 -1 19 -3 4 -6 -2 -5 -13z"/>
<path d="M8419 7075 c-1 -3 -2 -8 -3 -12 -1 -5 -5 -14 -10 -21 -7 -11 -4 -11
13 0 22 13 29 38 11 38 -5 0 -11 -2 -11 -5z"/>
<path d="M8502 7053 c-9 -16 -9 -24 0 -29 6 -4 8 -3 4 4 -3 5 -1 12 5 14 7 2
10 11 7 18 -3 11 -8 10 -16 -7z"/>
<path d="M8483 7005 c0 -8 4 -12 9 -9 5 3 6 10 3 15 -9 13 -12 11 -12 -6z"/>
<path d="M4231 6964 c0 -11 3 -14 6 -6 3 7 2 16 -1 19 -3 4 -6 -2 -5 -13z"/>
<path d="M8433 6955 c0 -9 7 -15 16 -13 19 4 18 22 -2 26 -7 2 -14 -4 -14 -13z"/>
<path d="M4215 6870 c-4 -28 -5 -53 -2 -56 2 -3 7 19 11 47 4 28 5 53 3 56 -3
2 -8 -19 -12 -47z"/>
<path d="M8503 6793 c-8 -16 -8 -26 -4 -56 0 -5 8 -1 17 7 8 9 13 22 11 29 -4
9 -6 9 -6 -1 -1 -7 -6 -10 -11 -7 -8 5 -7 11 1 21 6 8 9 17 6 20 -3 3 -9 -3
-14 -13z"/>
<path d="M8550 6781 c0 -11 5 -23 10 -26 6 -3 10 3 10 14 0 11 -4 23 -10 26
-5 3 -10 -3 -10 -14z"/>
<path d="M4203 6745 c0 -27 2 -38 4 -22 2 15 2 37 0 50 -2 12 -4 0 -4 -28z"/>
<path d="M4193 6545 c0 -44 2 -61 4 -37 2 23 2 59 0 80 -2 20 -4 1 -4 -43z"/>
<path d="M8337 6547 c-3 -8 1 -14 8 -14 7 0 11 6 8 14 -3 7 -6 13 -8 13 -2 0
-5 -6 -8 -13z"/>
<path d="M4203 6360 c0 -30 2 -43 4 -27 2 15 2 39 0 55 -2 15 -4 2 -4 -28z"/>
<path d="M4212 6265 c0 -16 2 -22 5 -12 2 9 2 23 0 30 -3 6 -5 -1 -5 -18z"/>
<path d="M8592 6200 c0 -19 2 -27 5 -17 2 9 2 25 0 35 -3 9 -5 1 -5 -18z"/>
<path d="M8576 6119 c-4 -23 -5 -44 -2 -46 2 -2 7 14 11 37 4 23 5 43 2 46 -2
3 -7 -14 -11 -37z"/>
<path d="M8556 6029 c-3 -18 -4 -34 -2 -36 2 -3 7 10 11 27 4 17 5 34 2 36 -2
3 -7 -10 -11 -27z"/>
<path d="M8541 5964 c0 -11 3 -14 6 -6 3 7 2 16 -1 19 -3 4 -6 -2 -5 -13z"/>
<path d="M8516 5885 c-57 -194 -193 -455 -338 -649 -33 -43 -57 -80 -54 -83 6
-7 132 164 185 252 94 155 240 494 228 529 -2 6 -12 -16 -21 -49z"/>
</g>
</svg>
